<?xml version="1.0" encoding="UTF-8" standalone="no"?> <svg width="64" height="64" viewBox="0 0 64 64" fill="none" xmlns="http://www.w3.org/2000/svg">
<path d="M46.78 60.38C44.3433 60.3796 41.9571 59.6859 39.9 58.38C26.1035 49.6016 14.4044 37.899 5.62998 24.1V24.1C4.05634 21.6423 3.37267 18.7196 3.69294 15.8189C4.01321 12.9183 5.31808 10.2151 7.38998 8.15997L10.47 5.08997C11.0607 4.49855 11.7621 4.02937 12.5343 3.70925C13.3064 3.38913 14.1341 3.22437 14.97 3.22437C15.8059 3.22437 16.6335 3.38913 17.4057 3.70925C18.1778 4.02937 18.8793 4.49855 19.47 5.08997L23.87 9.48997C25.0807 10.7091 25.8141 12.3219 25.9371 14.0357C26.06 15.7495 25.5643 17.4505 24.54 18.83L23.13 20.72C22.6277 21.3977 22.3839 22.2325 22.4426 23.074C22.5012 23.9156 22.8585 24.7085 23.45 25.31L39.51 41.37C40.1102 41.9629 40.9025 42.322 41.744 42.3825C42.5856 42.4431 43.4211 42.201 44.1 41.7L46 40.28C47.3794 39.2556 49.0805 38.7599 50.7942 38.8829C52.508 39.0058 54.1209 39.7392 55.34 40.95L58.92 44.53C59.5114 45.1207 59.9806 45.8221 60.3007 46.5943C60.6208 47.3664 60.7856 48.1941 60.7856 49.03C60.7856 49.8658 60.6208 50.6935 60.3007 51.4657C59.9806 52.2378 59.5114 52.9393 58.92 53.53L55.85 56.61C54.6615 57.8055 53.2483 58.7541 51.6916 59.4011C50.135 60.0481 48.4657 60.3808 46.78 60.38V60.38ZM7.77998 22.77C16.3474 36.2446 27.7656 47.6765 41.23 56.26C43.21 57.527 45.5644 58.0772 47.9009 57.8188C50.2373 57.5604 52.4147 56.509 54.07 54.84L57.15 51.76C57.8718 51.0347 58.277 50.0532 58.277 49.03C58.277 48.0068 57.8718 47.0252 57.15 46.3L53.56 42.72C52.7679 41.9331 51.7201 41.4561 50.6065 41.3754C49.4929 41.2947 48.3873 41.6156 47.49 42.28L45.6 43.7C44.439 44.5609 43.0081 44.9778 41.5663 44.8751C40.1246 44.7724 38.7672 44.1568 37.74 43.14L21.74 27.08C20.7137 26.058 20.0918 24.6994 19.9888 23.2548C19.8859 21.8102 20.309 20.3771 21.18 19.22L22.59 17.33C23.2563 16.4334 23.5785 15.3274 23.4977 14.2132C23.417 13.0991 22.9387 12.051 22.15 11.26L17.7 6.84997C16.9748 6.12817 15.9932 5.72296 14.97 5.72296C13.9468 5.72296 12.9652 6.12817 12.24 6.84997L9.15998 9.92997C7.49092 11.5853 6.43958 13.7626 6.18118 16.0991C5.92279 18.4355 6.47295 20.79 7.73998 22.77H7.77998Z" fill="black"/>
</svg>
