<?xml version="1.0" encoding="utf-8"?>
<!-- Generator: Adobe Illustrator 24.1.1, SVG Export Plug-In . SVG Version: 6.00 Build 0)  -->
<svg version="1.1" id="Layer_1" xmlns="http://www.w3.org/2000/svg" xmlns:xlink="http://www.w3.org/1999/xlink" x="0px" y="0px"
	 viewBox="0 0 512 512" style="enable-background:new 0 0 512 512;" fill="#064681" xml:space="preserve">
<style type="text/css">
	.st0{fill:#FFFFFF;}
</style>
<g>
	<path d="M114.4,0h283.3C460.8,0,512,51.2,512,114.4v283.3c0,63.1-51.2,114.3-114.4,114.3H114.4C51.2,512,0,460.8,0,397.6V114.4
		C0,51.2,51.2,0,114.4,0z"/>
	<circle class="st0" cx="256" cy="123.8" r="57"/>
	<path class="st0" d="M381.3,283.7c31.4,0,57,25.5,57,57c0,31.4-25.5,57-57,57c-31.5,0-57-25.5-57-57
		C324.4,309.3,349.9,283.7,381.3,283.7z"/>
	<path class="st0" d="M131.4,283.7c31.4,0,57,25.5,57,57c0,31.4-25.5,57-57,57c-31.4,0-57-25.5-57-57
		C74.4,309.3,99.9,283.7,131.4,283.7z"/>
	<path class="st0" d="M134.3,247.7c-0.1-50.1,19.5-98.2,54.5-133.9l0.2-1.2C122.2,142.4,82.9,212.5,92.4,285c11.4-8,25-12.3,39-12.3
		c1.5,0,3.1,0,4.6,0.2C134.9,264.6,134.3,256.2,134.3,247.7z"/>
	<path class="st0" d="M318.7,367.1c-44.3,32.6-100.4,44.5-154.1,33.1l-0.5,0.3c55.8,37.4,128.6,37.4,184.3-0.2
		C335,392.8,324.6,381.1,318.7,367.1z"/>
	<path class="st0" d="M314.6,158.3c51.8,24.4,90,70.4,104.3,125.8l0.7,0.4c9.3-72.4-30-142.2-96.5-171.9c0.6,3.7,0.9,7.5,0.9,11.2
		C324,135.9,320.8,147.9,314.6,158.3z"/>
</g>
</svg>
